HIERARCHY
ROOT SpineBase
{
  OFFSET 0.000000 0.000000 0.000000
  CHANNELS 6 Xposition Yposition Zposition Zrotation Xrotation Yrotation
  JOINT SpineMid
  {
    OFFSET 0.000000 25.261381 0.000000
    CHANNELS 3 Zrotation Xrotation Yrotation
    JOINT SpineShoulder
    {
      OFFSET 0.058171 18.644727 -0.678105
      CHANNELS 3 Zrotation Xrotation Yrotation
      JOINT Neck
      {
        OFFSET 0.022260 6.121014 -0.525935
        CHANNELS 3 Zrotation Xrotation Yrotation
        JOINT Head
        {
          OFFSET 2.985036 11.656235 -2.813467
          CHANNELS 3 Zrotation Xrotation Yrotation
          End Site
          {
            OFFSET 0 0 0
          }
        }
      }
      JOINT ShoulderLeft
      {
        OFFSET -14.771849 -3.255696 -8.447242
        CHANNELS 3 Zrotation Xrotation Yrotation
        JOINT ElbowLeft
        {
          OFFSET -8.337503 -22.515925 -0.553142
          CHANNELS 3 Zrotation Xrotation Yrotation
          JOINT WristLeft
          {
            OFFSET 4.547107 -19.583215 -20.302290
            CHANNELS 3 Zrotation Xrotation Yrotation
            JOINT HandLeft
            {
              OFFSET 3.678705 -7.689518 -1.963485
              CHANNELS 3 Zrotation Xrotation Yrotation
              JOINT HandTipLeft
              {
                OFFSET 3.385150 -6.851674 -3.876948
                CHANNELS 3 Zrotation Xrotation Yrotation
                End Site
                {
                  OFFSET 0 0 0
                }
              }
              JOINT ThumbLeft
              {
                OFFSET 4.915706 1.014731 4.020639
                CHANNELS 3 Zrotation Xrotation Yrotation
                End Site
                {
                  OFFSET 0 0 0
                }
              }
            }
          }
        }
      }
      JOINT ShoulderRight
      {
        OFFSET 14.303541 -5.339182 2.788387
        CHANNELS 3 Zrotation Xrotation Yrotation
        JOINT ElbowRight
        {
          OFFSET 8.042619 -23.752691 4.721695
          CHANNELS 3 Zrotation Xrotation Yrotation
          JOINT WristRight
          {
            OFFSET 12.194804 -20.836246 -14.767407
            CHANNELS 3 Zrotation Xrotation Yrotation
            JOINT HandRight
            {
              OFFSET 1.384124 -4.842051 -3.085166
              CHANNELS 3 Zrotation Xrotation Yrotation
              JOINT HandTipRight
              {
                OFFSET 0.043121 -5.906837 -3.954679
                CHANNELS 3 Zrotation Xrotation Yrotation
                End Site
                {
                  OFFSET 0 0 0
                }
              }
              JOINT ThumbRight
              {
                OFFSET 1.101929 0.324587 -2.154039
                CHANNELS 3 Zrotation Xrotation Yrotation
                End Site
                {
                  OFFSET 0 0 0
                }
              }
            }
          }
        }
      }
    }
  }
  JOINT HipLeft
  {
    OFFSET -6.439228 0.309092 -5.530198
    CHANNELS 3 Zrotation Xrotation Yrotation
    JOINT KneeLeft
    {
      OFFSET 12.114000 -11.954477 -30.482275
      CHANNELS 3 Zrotation Xrotation Yrotation
      JOINT AnkleLeft
      {
        OFFSET -3.845908 -34.610264 4.704596
        CHANNELS 3 Zrotation Xrotation Yrotation
        JOINT FootLeft
        {
          OFFSET 1.744057 -6.368618 -7.831761
          CHANNELS 3 Zrotation Xrotation Yrotation
          End Site
          {
            OFFSET 0 0 0
          }
        }
      }
    }
  }
  JOINT HipRight
  {
    OFFSET 6.117592 -0.162728 -1.528219
    CHANNELS 3 Zrotation Xrotation Yrotation
    JOINT KneeRight
    {
      OFFSET 19.478392 -11.893968 -24.637584
      CHANNELS 3 Zrotation Xrotation Yrotation
      JOINT AnkleRight
      {
        OFFSET -6.261681 -35.038506 6.343059
        CHANNELS 3 Zrotation Xrotation Yrotation
        JOINT FootRight
        {
          OFFSET 1.204400 -6.049479 -9.170791
          CHANNELS 3 Zrotation Xrotation Yrotation
          End Site
          {
            OFFSET 0 0 0
          }
        }
      }
    }
  }
}
MOTION
Frames: 5
Frame Time: 0.033333
19.480841 51.401872 391.790584 4.511063 -3.634983 -15.976948 0.157770 -0.737839 16.328025 0.550951 -0.397578 0.266891 0.906379 3.449206 1.116756 0.000000 0.000000 0.000000 -1.836177 1.185583 0.874999 -1.886636 6.957868 -1.669332 -5.821023 29.122121 17.495740 -10.270468 -40.174167 -24.339535 0.000000 0.000000 0.000000 0.000000 0.000000 0.000000 11.260170 2.588051 1.146961 -23.364146 -0.976759 0.977778 7.286419 1.036717 -3.958309 -0.910593 0.868156 1.329409 0.000000 0.000000 0.000000 0.000000 0.000000 0.000000 -4.421463 7.994020 15.270906 -4.223065 -4.759713 0.293694 5.500823 6.324118 -2.365414 0.000000 0.000000 0.000000 -4.870848 4.225573 16.986125 -1.203611 -2.668180 -0.677188 -10.997935 -13.373895 16.037551 0.000000 0.000000 0.000000
19.410049 51.492730 391.958634 4.435864 -3.855982 -16.293055 0.203727 -0.569788 16.641875 0.486825 -0.243318 0.256763 1.601977 2.895182 1.385578 0.000000 0.000000 0.000000 -2.118747 0.686916 1.069613 -1.593114 6.211043 -2.054061 -4.815058 29.735791 17.001066 -10.849659 -38.857011 -23.377693 0.000000 0.000000 0.000000 0.000000 0.000000 0.000000 13.939363 -1.891440 0.793168 -26.814948 3.252825 4.131365 10.079748 1.060291 -5.908450 -0.326789 -0.973957 0.673589 0.000000 0.000000 0.000000 0.000000 0.000000 0.000000 -4.438887 8.220011 15.560555 -4.180033 -4.713416 0.340324 5.330474 6.367020 -2.210602 0.000000 0.000000 0.000000 -4.991631 4.385178 17.530767 -0.732220 -2.934169 -0.752053 -13.385926 -14.125104 19.539986 0.000000 0.000000 0.000000
19.261297 51.556052 392.071432 4.246682 -4.003489 -16.350932 0.285980 -0.421998 16.686837 0.370263 -0.140902 0.242808 1.896078 2.764147 1.437270 0.000000 0.000000 0.000000 -2.448580 0.085662 1.321347 -0.849988 6.922080 -2.445544 -4.649309 34.086166 19.049449 -18.265360 -43.354227 -29.307746 0.000000 0.000000 0.000000 0.000000 0.000000 0.000000 14.403685 -2.462846 0.789674 -27.098117 3.706597 4.411750 11.464283 1.675196 -6.611199 -1.111180 -1.282165 0.961565 0.000000 0.000000 0.000000 0.000000 0.000000 0.000000 -4.257123 8.311109 15.472298 -4.105227 -4.651321 0.511798 5.327732 6.409307 -2.321056 0.000000 0.000000 0.000000 -4.871396 4.498315 17.557435 -0.558385 -2.979527 -0.664760 -16.855300 -18.278215 25.662856 0.000000 0.000000 0.000000
19.158975 51.619506 392.110112 4.178920 -4.041840 -16.870498 0.324929 -0.383114 17.201863 0.310188 -0.043603 0.234399 2.055231 2.923464 1.384683 0.000000 0.000000 0.000000 -2.840899 -0.514612 1.555691 0.131403 9.058273 -2.774915 -6.359320 29.398517 18.236600 -19.962327 -43.489495 -30.543115 0.000000 0.000000 0.000000 0.000000 0.000000 0.000000 12.434491 1.000464 1.089866 -24.095279 0.542853 1.761151 9.857864 0.907479 -5.746428 -0.177478 -0.718213 0.636017 0.000000 0.000000 0.000000 0.000000 0.000000 0.000000 -4.245743 8.279600 15.902577 -4.027562 -4.595375 0.622919 5.499846 6.267639 -2.670738 0.000000 0.000000 0.000000 -4.741170 4.382118 17.677298 -0.804200 -2.615309 -0.352447 -15.705741 -15.571474 23.885222 0.000000 0.000000 0.000000
19.060997 51.682816 392.094369 4.128790 -3.987945 -17.208179 0.346460 -0.387526 17.534308 0.264634 0.072374 0.225626 1.808216 3.177929 1.212050 0.000000 0.000000 0.000000 -2.572499 -0.679603 1.550773 0.499101 11.169611 -2.863430 -8.740062 11.662838 11.098843 -10.150086 -33.151350 -19.321839 0.000000 0.000000 0.000000 0.000000 0.000000 0.000000 10.601238 3.525957 1.380645 -21.162104 -2.433476 -0.651877 8.424096 0.865723 -4.652299 -0.053374 1.272632 0.718059 0.000000 0.000000 0.000000 0.000000 0.000000 0.000000 -4.154406 8.158410 16.036887 -4.075805 -4.487966 0.811569 5.602281 6.159491 -2.790143 0.000000 0.000000 0.000000 -4.565639 4.161746 17.535822 -1.068323 -2.290571 0.044753 -13.973587 -13.446343 21.181604 0.000000 0.000000 0.000000
